HIERARCHY
ROOT Reference
{
  OFFSET 0 0 0
  CHANNELS 6 Xposition Yposition Zposition Zrotation Xrotation Yrotation
  JOINT Hips
  {
    OFFSET 251.394 724.17 483.536
    CHANNELS 3 Zrotation Xrotation Yrotation
    JOINT RightUpLeg
    {
      OFFSET -0.450515 -23.4426 -1.37224
      CHANNELS 3 Zrotation Xrotation Yrotation
      JOINT RightLeg
      {
        OFFSET 112.821 0.0872427 -0.321027
        CHANNELS 3 Zrotation Xrotation Yrotation
        JOINT RightFoot
        {
          OFFSET 105.718 0.000193788 0.0213165
          CHANNELS 3 Zrotation Xrotation Yrotation
          JOINT RightToeBase
          {
            OFFSET 37.638 -0.000116272 0.00224792
            CHANNELS 3 Zrotation Xrotation Yrotation
            JOINT RightToeEnd
            {
              OFFSET 21.2112 0.114605 -0.000138184
              CHANNELS 3 Zrotation Xrotation Yrotation
              End Site
              {
                OFFSET 0 0 0
              }
            }
          }
        }
      }
    }
    JOINT LeftUpLeg
    {
      OFFSET -0.449508 23.4315 -1.37054
      CHANNELS 3 Zrotation Xrotation Yrotation
      JOINT LeftLeg
      {
        OFFSET 112.821 -0.0485242 -0.372458
        CHANNELS 3 Zrotation Xrotation Yrotation
        JOINT LeftFoot
        {
          OFFSET 105.716 0.00496094 -0.0229443
          CHANNELS 3 Zrotation Xrotation Yrotation
          JOINT LeftToeBase
          {
            OFFSET 37.639 0 0.00158905
            CHANNELS 3 Zrotation Xrotation Yrotation
            JOINT LeftToeEnd
            {
              OFFSET 21.2113 -0.125031 -0.00017438
              CHANNELS 3 Zrotation Xrotation Yrotation
              End Site
              {
                OFFSET 0 0 0
              }
            }
          }
        }
      }
    }
    JOINT Spine
    {
      OFFSET -5.01225 0.000463591 -9.60395
      CHANNELS 3 Zrotation Xrotation Yrotation
      JOINT Spine1
      {
        OFFSET 26.0222 -0.000271301 -0.000155029
        CHANNELS 3 Zrotation Xrotation Yrotation
        JOINT Spine2
        {
          OFFSET 27.173 -0.000155029 -0.000310058
          CHANNELS 3 Zrotation Xrotation Yrotation
          JOINT Spine3
          {
            OFFSET 36.3953 -0.000232544 7.75146e-005
            CHANNELS 3 Zrotation Xrotation Yrotation
            JOINT Neck
            {
              OFFSET 36.4331 0 -3.00261
              CHANNELS 3 Zrotation Xrotation Yrotation
              JOINT Head
              {
                OFFSET 23.0407 -0.000232544 -0.000310058
                CHANNELS 3 Zrotation Xrotation Yrotation
                End Site
                {
                  OFFSET 0 0 0
                }
              }
            }
            JOINT LeftShoulder
            {
              OFFSET 20.1317 6.74168 -12.6061
              CHANNELS 3 Zrotation Xrotation Yrotation
              JOINT LeftArm
              {
                OFFSET 34.2172 -5.81359e-005 7.75146e-005
                CHANNELS 3 Zrotation Xrotation Yrotation
                JOINT LeftForeArm
                {
                  OFFSET 65.4129 -0.0821605 0.0585235
                  CHANNELS 3 Zrotation Xrotation Yrotation
                  JOINT LeftHand
                  {
                    OFFSET 67.3883 0.0359667 0.0112396
                    CHANNELS 3 Zrotation Xrotation Yrotation
                    JOINT LeftHandThumb1
                    {
                      OFFSET 8.78386 2.85353 -6.05362
                      CHANNELS 3 Zrotation Xrotation Yrotation
                      JOINT LeftHandThumb2
                      {
                        OFFSET 8.25498 -0.000116272 -0.000174407
                        CHANNELS 3 Zrotation Xrotation Yrotation
                        JOINT LeftHandThumb3
                        {
                          OFFSET 7.24822 0.000310058 5.81358e-005
                          CHANNELS 3 Zrotation Xrotation Yrotation
                          JOINT LeftHandThumb4
                          {
                            OFFSET 7.0004 -3.87568e-005 -0.000310057
                            CHANNELS 3 Zrotation Xrotation Yrotation
                            End Site
                            {
                              OFFSET 0 0 0
                            }
                          }
                        }
                      }
                    }
                    JOINT LeftHandIndex1
                    {
                      OFFSET 24.0991 -1.01537 -5.40558
                      CHANNELS 3 Zrotation Xrotation Yrotation
                      JOINT LeftHandIndex2
                      {
                        OFFSET 7.26759 -0.000290679 -0.000465086
                        CHANNELS 3 Zrotation Xrotation Yrotation
                        JOINT LeftHandIndex3
                        {
                          OFFSET 7.13628 -1.93787e-005 0.000232543
                          CHANNELS 3 Zrotation Xrotation Yrotation
                          JOINT LeftHandIndex4
                          {
                            OFFSET 5.46699 9.68932e-005 -0.000387571
                            CHANNELS 3 Zrotation Xrotation Yrotation
                            End Site
                            {
                              OFFSET 0 0 0
                            }
                          }
                        }
                      }
                    }
                    JOINT LeftHandMiddle1
                    {
                      OFFSET 24.4604 -2.52837 0.918567
                      CHANNELS 3 Zrotation Xrotation Yrotation
                      JOINT LeftHandMiddle2
                      {
                        OFFSET 7.41627 -5.81359e-005 0.000116271
                        CHANNELS 3 Zrotation Xrotation Yrotation
                        JOINT LeftHandMiddle3
                        {
                          OFFSET 8.76829 3.87573e-005 -7.75142e-005
                          CHANNELS 3 Zrotation Xrotation Yrotation
                          JOINT LeftHandMiddle4
                          {
                            OFFSET 6.07588 -0.00013565 -5.81356e-005
                            CHANNELS 3 Zrotation Xrotation Yrotation
                            End Site
                            {
                              OFFSET 0 0 0
                            }
                          }
                        }
                      }
                    }
                    JOINT LeftHandRing1
                    {
                      OFFSET 22.465 -1.97467 6.3466
                      CHANNELS 3 Zrotation Xrotation Yrotation
                      JOINT LeftHandRing2
                      {
                        OFFSET 7.36666 -0.000232544 0.000387571
                        CHANNELS 3 Zrotation Xrotation Yrotation
                        JOINT LeftHandRing3
                        {
                          OFFSET 8.07624 -0.000465087 -0.000203475
                          CHANNELS 3 Zrotation Xrotation Yrotation
                          JOINT LeftHandRing4
                          {
                            OFFSET 6.04433 0.00013565 3.87571e-005
                            CHANNELS 3 Zrotation Xrotation Yrotation
                            End Site
                            {
                              OFFSET 0 0 0
                            }
                          }
                        }
                      }
                    }
                    JOINT LeftHandPinky1
                    {
                      OFFSET 19.5278 0.352933 10.4295
                      CHANNELS 3 Zrotation Xrotation Yrotation
                      JOINT LeftHandPinky2
                      {
                        OFFSET 6.16525 5.8136e-005 -0.000251921
                        CHANNELS 3 Zrotation Xrotation Yrotation
                        JOINT LeftHandPinky3
                        {
                          OFFSET 6.14448 -0.000329434 -0.00510625
                          CHANNELS 3 Zrotation Xrotation Yrotation
                          JOINT LeftHandPinky4
                          {
                            OFFSET 4.98555 0.000116272 0.000116271
                            CHANNELS 3 Zrotation Xrotation Yrotation
                            End Site
                            {
                              OFFSET 0 0 0
                            }
                          }
                        }
                      }
                    }
                  }
                }
              }
            }
            JOINT RightShoulder
            {
              OFFSET 20.1309 -6.74152 -12.6063
              CHANNELS 3 Zrotation Xrotation Yrotation
              JOINT RightArm
              {
                OFFSET 34.2171 7.75146e-005 7.75146e-005
                CHANNELS 3 Zrotation Xrotation Yrotation
                JOINT RightForeArm
                {
                  OFFSET 65.4492 0.242543 -0.176501
                  CHANNELS 3 Zrotation Xrotation Yrotation
                  JOINT RightHand
                  {
                    OFFSET 67.3888 -0.0867388 0.0597442
                    CHANNELS 3 Zrotation Xrotation Yrotation
                    JOINT RightHandThumb1
                    {
                      OFFSET 8.78307 -2.85357 -6.05302
                      CHANNELS 3 Zrotation Xrotation Yrotation
                      JOINT RightHandThumb2
                      {
                        OFFSET 8.25493 -7.75145e-005 0
                        CHANNELS 3 Zrotation Xrotation Yrotation
                        JOINT RightHandThumb3
                        {
                          OFFSET 7.24797 -0.000174408 0.000155029
                          CHANNELS 3 Zrotation Xrotation Yrotation
                          JOINT RightHandThumb4
                          {
                            OFFSET 7.00062 0 0
                            CHANNELS 3 Zrotation Xrotation Yrotation
                            End Site
                            {
                              OFFSET 0 0 0
                            }
                          }
                        }
                      }
                    }
                    JOINT RightHandIndex1
                    {
                      OFFSET 24.0991 1.01525 -5.40578
                      CHANNELS 3 Zrotation Xrotation Yrotation
                      JOINT RightHandIndex2
                      {
                        OFFSET 7.26773 7.75144e-005 0.000232543
                        CHANNELS 3 Zrotation Xrotation Yrotation
                        JOINT RightHandIndex3
                        {
                          OFFSET 7.13572 -0.000310058 3.87571e-005
                          CHANNELS 3 Zrotation Xrotation Yrotation
                          JOINT RightHandIndex4
                          {
                            OFFSET 5.46717 0 3.87572e-005
                            CHANNELS 3 Zrotation Xrotation Yrotation
                            End Site
                            {
                              OFFSET 0 0 0
                            }
                          }
                        }
                      }
                    }
                    JOINT RightHandMiddle1
                    {
                      OFFSET 24.4603 2.52899 0.918547
                      CHANNELS 3 Zrotation Xrotation Yrotation
                      JOINT RightHandMiddle2
                      {
                        OFFSET 7.41641 -0.000116272 -0.000116272
                        CHANNELS 3 Zrotation Xrotation Yrotation
                        JOINT RightHandMiddle3
                        {
                          OFFSET 8.76765 -3.87577e-005 0.000232543
                          CHANNELS 3 Zrotation Xrotation Yrotation
                          JOINT RightHandMiddle4
                          {
                            OFFSET 6.07609 -0.000193787 -0.000116271
                            CHANNELS 3 Zrotation Xrotation Yrotation
                            End Site
                            {
                              OFFSET 0 0 0
                            }
                          }
                        }
                      }
                    }
                    JOINT RightHandRing1
                    {
                      OFFSET 22.465 1.97571 6.34696
                      CHANNELS 3 Zrotation Xrotation Yrotation
                      JOINT RightHandRing2
                      {
                        OFFSET 7.36684 0.000193786 0.000155029
                        CHANNELS 3 Zrotation Xrotation Yrotation
                        JOINT RightHandRing3
                        {
                          OFFSET 8.07614 -0.000271301 0
                          CHANNELS 3 Zrotation Xrotation Yrotation
                          JOINT RightHandRing4
                          {
                            OFFSET 6.04468 0.000232543 0
                            CHANNELS 3 Zrotation Xrotation Yrotation
                            End Site
                            {
                              OFFSET 0 0 0
                            }
                          }
                        }
                      }
                    }
                    JOINT RightHandPinky1
                    {
                      OFFSET 19.5277 -0.352346 10.4296
                      CHANNELS 3 Zrotation Xrotation Yrotation
                      JOINT RightHandPinky2
                      {
                        OFFSET 6.16508 0 0.000232543
                        CHANNELS 3 Zrotation Xrotation Yrotation
                        JOINT RightHandPinky3
                        {
                          OFFSET 6.14396 -0.000155048 -0.0048834
                          CHANNELS 3 Zrotation Xrotation Yrotation
                          JOINT RightHandPinky4
                          {
                            OFFSET 4.98577 -7.75146e-005 -7.75143e-005
                            CHANNELS 3 Zrotation Xrotation Yrotation
                            End Site
                            {
                              OFFSET 0 0 0
                            }
                          }
                        }
                      }
                    }
                  }
                }
              }
            }
          }
        }
      }
    }
  }
}
MOTION
Frames:	5
Frame Time:	0.0333333
0 0 0 -90 -7.01671e-015 -180 -12.5103 -10.8545 -119.505 168.178 -3.76394 -90.9399 5.45219 2.51775 -65.6663 -7.75942 9.46247 74.5906 -0.553405 0.173728 50.6626 5.05483e-005 -4.43132e-005 -86.4974 -175.123 -3.21616 -81.4137 7.34364 7.6465 -44.3347 8.2934 6.38832 45.5843 0.59479 -0.00336191 68.4123 9.21082e-005 -7.37209e-005 -86.4975 4.89723 -3.24764 134.601 -4.9094 -5.84187 -4.76371 -6.14228 -6.98944 -6.76123 -3.82787 -3.79467 8.94537 9.26754 -35.3155 21.2376 2.2479 -34.8026 44.3957 89.6544 22.2029 -17.62 97.5141 13.4272 -14.5401 0.0544355 -15.3407 37.1579 7.14023 47.1335 -4.98351 -158.644 -1.25063 142.926 0.000489705 0.000148876 18.1946 0.000275342 -3.09709e-005 4.42418 0.000351965 -0.0013241 -7.17127e-005 -58.3871 84.3713 65.7907 -0.000488999 -0.000411166 7.01044 0.000957429 -0.000820565 1.49816 -0.000614573 -0.000428931 -2.32874 -0.848746 86.8814 19.1219 -5.16336e-006 -0.000105776 2.36079 0.000792914 -0.000768688 3.18738 -0.000592283 -0.000217466 -2.32823 -64.2661 87.7514 88.8075 -1.91925e-005 -0.00087249 6.45541 0.00115323 -0.000321751 7.30259 -0.000648492 -0.000731927 -2.32754 113.282 82.2369 -88.9715 0.000953966 -0.00131643 8.87313 -0.000305171 -0.0001119 7.05728 1.72649e-005 -0.000134802 -2.32872 -89.1022 -22.2229 -26.4093 -44.2331 -16.1285 33.9233 -7.38345 -39.7415 29.3955 5.90252 -44.7224 -2.16884 158.644 1.25074 142.929 -0.000211632 -6.16474e-005 18.1946 0.000100321 6.09484e-005 4.43576 -0.00012207 0.000213623 -180 59.1591 -84.3774 65.6776 -7.52806e-005 9.6231e-006 6.10276 9.50368e-005 -1.85573e-005 0.600941 -7.93933e-005 -7.6231e-005 177.672 0.848669 -86.8814 19.122 4.58264e-006 -0.000202795 2.36153 1.01423e-005 0.000161839 3.18767 -4.7636e-005 -4.57386e-005 177.672 64.2642 -87.7514 83.7107 1.87373e-006 -0.000178496 1.37323 2.41981e-005 6.8099e-005 2.20786 -6.04152e-005 1.52462e-005 177.672 -113.274 -82.241 -103.218 1.57679e-005 0.000192205 3.77867 6.79786e-005 -3.68743e-005 1.97141 -0.000103092 9.14772e-005 177.672 
0 0 0 -90 -7.01671e-015 -180 -11.7743 -10.6014 -119.905 168.851 -3.08241 -90.8729 5.4881 2.40377 -66.8252 -7.77906 9.38615 75.2918 -0.553478 0.174066 50.6409 5.05111e-005 -5.44264e-005 -86.4974 -174.452 -2.63474 -80.7628 7.73795 7.44637 -46.6361 8.16617 6.37482 46.6466 0.594961 -0.00264439 68.4794 9.22284e-005 -7.33302e-005 -86.4975 4.75407 -3.14631 133.974 -4.65125 -5.62631 -5.04676 -5.95658 -6.75704 -7.02842 -3.74687 -3.47661 8.69196 9.8536 -31.4212 20.7042 3.72321 -31.1463 45.3551 89.739 22.2055 -17.6321 94.9725 12.1072 -14.8932 0.246785 -13.7237 36.7877 8.10268 46.9259 -6.09603 -158.644 -1.25063 142.926 0.000489496 0.000149019 18.1946 0.000275276 -3.08745e-005 4.42418 0.000351967 -0.00132751 -7.17127e-005 -58.3379 84.3709 65.7621 -0.000491235 -0.00041242 7.031 0.000954911 -0.000818939 1.51872 -0.000614567 -0.000428955 -2.32874 -0.79798 86.8814 19.1219 -3.47941e-006 -0.000110765 2.41122 0.000781518 -0.000775419 3.23714 -0.000592261 -0.000217478 -2.32823 -64.3153 87.7516 88.9074 -2.32394e-005 -0.000869197 6.50585 0.00116112 -0.000316713 7.35273 -0.000648479 -0.000734256 -2.32754 113.373 82.2378 -89.012 0.000955955 -0.00131591 8.92325 -0.000301674 -0.000116125 7.10771 1.73408e-005 -0.000137144 -2.32872 -89.7691 -21.9592 -26.2185 -44.5255 -16.2401 32.2178 -6.99791 -40.2068 29.3594 5.75747 -44.3224 -1.20577 158.644 1.25072 142.929 -0.000212089 -6.51635e-005 18.1946 0.000100349 5.85028e-005 4.43576 -0.00012207 0.000213623 -180 59.1591 -84.3774 65.6777 -7.52518e-005 9.71073e-006 6.10276 9.50334e-005 -1.85473e-005 0.600941 -7.93933e-005 -7.6231e-005 177.672 0.79704 -86.8814 19.122 4.80249e-006 -0.000205765 2.41162 6.29378e-006 0.000162647 3.23814 -4.82559e-005 -6.09848e-005 177.672 64.3146 -87.7516 83.813 -1.57778e-006 -0.000178525 1.42347 2.8448e-005 6.69574e-005 2.25799 -6.04152e-005 1.52462e-005 177.672 -113.366 -82.2421 -103.259 1.45024e-005 0.000193104 3.82914 7.0663e-005 -3.92722e-005 2.02164 -0.000103712 7.6231e-005 177.672 
0 0 0 -90 -7.01671e-015 -180 -10.6748 -10.493 -120.481 169.567 -1.9755 -90.7424 5.51669 2.23681 -68.4344 -7.87774 9.34259 76.1764 -0.553916 0.173358 50.7354 5.04969e-005 -7.13057e-005 -86.4974 -173.84 -1.63039 -79.8411 8.34375 7.16227 -49.9163 7.90996 6.49203 48.0281 0.595139 -0.00169344 68.5877 9.23247e-005 -7.28909e-005 -86.4975 4.55315 -2.99426 133.084 -4.27725 -5.35749 -5.38338 -5.66168 -6.4206 -7.38493 -3.57033 -3.04838 8.30543 10.0029 -25.3711 19.355 5.33796 -25.5684 46.4478 89.8261 22.2003 -17.6767 91.4803 10.2127 -15.9194 0.186638 -11.2466 36.872 9.56904 46.3531 -7.65017 -158.644 -1.25063 142.926 0.000489265 0.000149258 18.1946 0.000275203 -3.073e-005 4.42418 0.000351967 -0.0013317 -7.17127e-005 -58.2886 84.3705 65.7333 -0.000495578 -0.000411449 7.05156 0.000952465 -0.000816408 1.53928 -0.000614549 -0.000432391 -2.32874 -0.747331 86.8814 19.122 -3.43276e-006 -0.000109601 2.46164 0.000773391 -0.000781547 3.2869 -0.000592224 -0.000219887 -2.32823 -64.3643 87.7519 89.0072 -2.30347e-005 -0.000866547 6.55629 0.00117025 -0.000311194 7.40286 -0.000648467 -0.000739525 -2.32754 113.464 82.2387 -89.0524 0.000957864 -0.00131198 8.97336 -0.000298073 -0.000118136 7.15814 1.74397e-005 -0.000139431 -2.32872 -90.6753 -21.586 -25.8674 -44.896 -16.3622 30.1413 -6.82819 -40.7689 28.8684 5.53332 -44.0366 0.573697 158.644 1.25068 142.929 -0.000211573 -6.72954e-005 18.1946 0.000100278 5.6045e-005 4.43575 -0.00012207 0.000213623 -180 59.1593 -84.3774 65.6778 -7.51753e-005 9.82182e-006 6.10276 9.50246e-005 -1.85348e-005 0.60094 -8.00132e-005 -9.14772e-005 177.672 0.745433 -86.8814 19.1221 4.63703e-006 -0.000205176 2.46171 6.16951e-006 0.000165484 3.2886 -4.82559e-005 -6.09848e-005 177.672 64.3646 -87.7519 83.9148 -6.65084e-006 -0.000180914 1.47371 2.92733e-005 6.63564e-005 2.30812 -6.04152e-005 1.52462e-005 177.672 -113.458 -82.2433 -103.3 1.35928e-005 0.000196123 3.87961 7.24051e-005 -4.22327e-005 2.07187 -0.000103712 7.6231e-005 177.672 
0 0 0 -90 -7.01671e-015 -180 -9.4061 -10.2651 -121.154 170.512 -0.774241 -90.6686 5.55104 2.05608 -70.2294 -7.99263 9.29118 77.2031 -0.554265 0.173233 50.7692 5.04768e-005 -0.000100355 -86.4974 -173.157 -0.524498 -79.0328 8.99541 6.86313 -53.2905 7.57563 6.68315 49.4672 0.595313 -0.000742586 68.6961 9.23702e-005 -7.25341e-005 -86.4975 4.32303 -2.80886 132.023 -3.79233 -5.11681 -5.80397 -5.27255 -6.09316 -7.82057 -3.34857 -2.57885 7.83228 9.60531 -18.281 17.5178 6.37696 -18.808 47.3502 89.9447 22.1927 -17.7392 87.035 7.89142 -17.62 0.211561 -8.08638 37.8866 11.533 46.211 -9.88969 -158.644 -1.25063 142.926 0.000489005 0.000147218 18.1946 0.000275121 -3.05483e-005 4.42418 0.000351965 -0.00133971 -7.17126e-005 -58.2393 84.3701 65.7045 -0.000499427 -0.000409936 7.07213 0.000951747 -0.000816824 1.55984 -0.000614513 -0.000436587 -2.32874 -0.696631 86.8814 19.1221 -2.68497e-006 -0.000108573 2.51207 0.000766176 -0.000787729 3.33666 -0.000592168 -0.000222273 -2.32823 -64.4141 87.7522 89.1078 -2.56786e-005 -0.000862263 6.60673 0.00117444 -0.000310128 7.45299 -0.00064844 -0.000747005 -2.32754 113.555 82.2395 -89.0931 0.000961227 -0.00131742 9.02348 -0.000293698 -0.000123217 7.20856 1.74321e-005 -0.000144101 -2.32872 -91.8361 -21.1394 -25.4753 -45.3511 -16.4984 27.7103 -6.49995 -41.3512 28.2907 4.42494 -44.3019 2.06722 158.644 1.25063 142.929 -0.000211527 -7.14072e-005 18.1946 0.0001003 5.0107e-005 4.43576 -0.00012207 0.000198364 -180 59.1596 -84.3775 65.6781 -7.51653e-005 7.46722e-006 6.10276 9.50298e-005 -1.85262e-005 0.60094 -8.00132e-005 -9.14772e-005 177.672 0.693776 -86.8814 19.1221 3.87771e-006 -0.000204214 2.5118 5.03768e-006 0.000168381 3.33907 -4.88758e-005 -7.6231e-005 177.672 64.4151 -87.7522 84.0171 -1.03003e-005 -0.000183727 1.52395 3.44262e-005 6.22416e-005 2.35826 -6.04152e-005 1.52462e-005 177.672 -113.551 -82.2444 -103.341 1.34331e-005 0.000200211 3.93009 7.52212e-005 -4.59738e-005 2.12211 -0.000103712 7.6231e-005 177.672 
0 0 0 -90 -7.01671e-015 -180 -8.04629 -10.0966 -121.847 171.476 0.526997 -90.6565 5.58585 1.87942 -71.9488 -8.14254 9.29765 78.1675 -0.554549 0.172305 50.8558 5.04608e-005 -0.000157324 -86.4974 -172.572 0.680492 -78.5279 9.6243 6.5974 -56.339 7.12283 6.93641 50.8285 0.632944 -0.0304176 68.7527 9.2357e-005 -7.21863e-005 -86.4975 4.09154 -2.60733 130.915 -3.29904 -4.85838 -6.23211 -4.86861 -5.73872 -8.27723 -3.09817 -2.1063 7.35758 8.67046 -11.4338 15.5672 6.64127 -11.8391 47.992 90.0468 22.1844 -17.8002 82.0829 5.59779 -19.7796 0.21559 -4.66458 39.6801 14.135 45.4102 -12.5857 -158.644 -1.25062 142.926 0.000488645 0.000147636 18.1946 0.000275021 -3.27458e-005 4.42418 0.000351967 -0.00135825 -7.17125e-005 -58.1899 84.3697 65.6758 -0.000503199 -0.000414873 7.09268 0.000950996 -0.000813764 1.5804 -0.000614484 -0.000443425 -2.32874 -0.645913 86.8814 19.1222 -1.82883e-006 -0.000110445 2.56249 0.000786467 -0.000773807 3.38814 -0.000592119 -0.000225652 -2.32823 -64.4638 87.7524 89.2082 -2.4086e-005 -0.000855912 6.65717 0.00118223 -0.000308472 7.50313 -0.000648425 -0.000763198 -2.32754 113.646 82.2404 -89.1335 0.000963478 -0.00131681 9.0736 -0.000291343 -0.00012391 7.25899 1.7483e-005 -0.000154444 -2.32872 -93.0738 -20.6688 -25.0514 -45.8076 -16.5661 25.208 -6.16464 -41.8991 27.6816 4.40585 -43.9121 4.66031 158.644 1.25053 142.928 -0.000211645 -8.05229e-005 18.1946 0.000100275 3.92925e-005 4.43575 -0.00012207 0.000167847 -180 59.1599 -84.3775 65.6785 -7.53729e-005 7.57106e-006 6.10276 9.5021e-005 -1.85112e-005 0.60094 -8.1253e-005 -0.00012197 177.672 0.642122 -86.8814 19.1221 2.8756e-006 -0.000204353 2.56189 1.47914e-006 0.00016783 3.38953 -5.01156e-005 -0.000106723 177.672 64.4661 -87.7525 84.1199 -1.62249e-005 -0.000184973 1.57419 3.60727e-005 6.27989e-005 2.40839 -6.04152e-005 1.52462e-005 177.672 -113.643 -82.2455 -103.381 1.14957e-005 0.000201472 3.98056 7.68174e-005 -5.00821e-005 2.17234 -0.000104332 6.09848e-005 177.672 
